<svg width="64" height="64" viewBox="0 0 64 64" fill="none" xmlns="http://www.w3.org/2000/svg">
<rect width="64" height="64" rx="32" fill="#F5F5F5"/>
<path d="M45.2706 38.4358C44.8166 38.1864 44.2467 38.3523 43.9975 38.806C43.7482 39.2598 43.9139 39.8298 44.3678 40.0791C45.4845 40.6926 46.125 41.3727 46.125 41.9451C46.125 42.6451 45.1331 43.7301 42.3492 44.6759C39.5989 45.6104 35.9234 46.125 32 46.125C28.0766 46.125 24.4011 45.6104 21.6508 44.6759C18.8669 43.7302 17.875 42.6451 17.875 41.9451C17.875 41.3727 18.5155 40.6926 19.6323 40.079C20.0861 39.8298 20.2518 39.2598 20.0025 38.8059C19.7532 38.3522 19.1834 38.1864 18.7294 38.4357C17.4843 39.1198 16 40.2839 16 41.9451C16 43.2184 16.8758 45.0339 21.0476 46.4513C23.9871 47.45 27.8767 48 32 48C36.1233 48 40.0129 47.45 42.9524 46.4513C47.1243 45.0339 48 43.2184 48 41.9451C48 40.2839 46.5157 39.1198 45.2706 38.4358Z" fill="black"/>
<path d="M24.922 43.3206C26.8251 43.8582 29.3388 44.1544 32 44.1544C34.6612 44.1544 37.1749 43.8583 39.078 43.3206C41.4063 42.6629 42.5869 41.7108 42.5869 40.4909C42.5869 39.271 41.4063 38.319 39.078 37.6613C38.5611 37.5153 37.999 37.3873 37.4014 37.278C37.0768 37.8388 36.7367 38.4159 36.3812 39.0098C37.0427 39.109 37.6637 39.2307 38.2278 39.3744C39.9412 39.8108 40.5673 40.3021 40.6959 40.491C40.5672 40.6799 39.9413 41.1712 38.2278 41.6076C36.606 42.0207 34.5194 42.2563 32.3217 42.2774C32.2153 42.2852 32.108 42.2897 32 42.2897C31.8919 42.2897 31.7847 42.2852 31.6783 42.2774C29.4806 42.2563 27.3939 42.0207 25.7721 41.6076C24.0586 41.1712 23.4327 40.6799 23.304 40.491C23.4327 40.3021 24.0587 39.8108 25.7722 39.3744C26.3362 39.2307 26.9573 39.109 27.6188 39.0098C27.2633 38.416 26.9232 37.8387 26.5986 37.278C26.001 37.3873 25.4388 37.5153 24.922 37.6613C22.5937 38.319 21.4131 39.2711 21.4131 40.4909C21.4131 41.7108 22.5937 42.6629 24.922 43.3206Z" fill="black"/>
<path d="M32 40.4146C32.8346 40.4146 33.5926 39.9894 34.028 39.2771C37.0786 34.286 40.715 27.7081 40.715 24.7149C40.715 19.9095 36.8055 16 32 16C27.1945 16 23.285 19.9095 23.285 24.7149C23.285 27.7081 26.9214 34.286 29.972 39.2771C30.4074 39.9894 31.1655 40.4146 32 40.4146ZM28.4971 24.1166C28.4971 22.1851 30.0685 20.6137 32 20.6137C33.9315 20.6137 35.5029 22.1851 35.5029 24.1166C35.5029 26.0481 33.9315 27.6194 32 27.6194C30.0685 27.6194 28.4971 26.0481 28.4971 24.1166Z" fill="black"/>
</svg>
