<svg width="179" height="30" viewBox="0 0 179 30" fill="none" xmlns="http://www.w3.org/2000/svg">
<path d="M48.0124 8.98978C48.9554 9.81076 49.4282 11.0124 49.4282 12.598H46.3479C46.3479 11.826 46.1271 11.229 45.686 10.8096C45.2457 10.3894 44.6113 10.1784 43.7852 10.1784C43.1097 10.1784 42.5659 10.3278 42.1517 10.6233C41.7388 10.9205 41.5322 11.3086 41.5322 11.7911C41.5322 12.1645 41.6354 12.4663 41.842 12.7009C42.0473 12.9351 42.3719 13.1386 42.813 13.3115C43.2539 13.4838 43.8947 13.6722 44.7356 13.8789C45.8802 14.1674 46.8021 14.4611 47.5061 14.7569C48.2091 15.0545 48.7837 15.4987 49.2317 16.0911C49.6795 16.6831 49.9033 17.4815 49.9033 18.4881C49.9033 19.4115 49.6621 20.2251 49.1799 20.9288C48.6979 21.6303 48.0224 22.1755 47.1541 22.5608C46.2858 22.9468 45.2868 23.1398 44.1571 23.1398C42.2967 23.1398 40.8393 22.6904 39.7843 21.7959C38.7305 20.9006 38.2031 19.6264 38.2031 17.9704H41.3456C41.3456 18.8677 41.587 19.5418 42.0697 19.9969C42.5511 20.4512 43.2608 20.6801 44.1994 20.6801C44.9694 20.6801 45.5865 20.5111 46.0487 20.1751C46.5108 19.8356 46.7397 19.3763 46.7397 18.798C46.7397 18.3845 46.6371 18.0577 46.43 17.8161C46.2234 17.5752 45.9274 17.3871 45.543 17.2491C45.1556 17.111 44.5428 16.9307 43.7017 16.7116C42.5032 16.407 41.5521 16.1108 40.8493 15.8234C40.1476 15.5325 39.5642 15.0961 39.1026 14.5101C38.6411 13.9237 38.4109 13.128 38.4109 12.1222C38.4109 11.2674 38.6386 10.5099 39.0926 9.84808C39.5467 9.18702 40.1886 8.67317 41.0154 8.30795C41.842 7.94272 42.785 7.76135 43.8474 7.76135C45.6798 7.76135 47.0682 8.16989 48.0124 8.98978Z" fill="white"/>
<path d="M51.2256 10.9839V8.09204H54.1204V10.9839H51.2256ZM51.2256 22.8073V12.3088H54.1204V22.8073H51.2256Z" fill="white"/>
<path d="M62.1611 12.4321V14.9324C61.789 14.864 61.4856 14.8299 61.2516 14.8299C60.3697 14.8299 59.6954 15.1017 59.2251 15.6455C58.7574 16.1918 58.5235 16.9804 58.5235 18.0126V22.8074H55.6299V12.3088H58.2958V13.9614H58.3369C58.6814 13.3961 59.0919 12.9805 59.5672 12.7107C60.0425 12.443 60.5898 12.3088 61.2105 12.3088C61.5546 12.3088 61.8713 12.3487 62.1611 12.4321Z" fill="white"/>
<path d="M77.7573 13.1559C78.4117 13.8863 78.7386 14.9535 78.7386 16.3594V22.8073H75.845V16.6482C75.845 15.8755 75.7002 15.2993 75.4103 14.9126C75.1223 14.5269 74.7155 14.3329 74.1903 14.3329C73.5716 14.3329 73.0958 14.5991 72.7654 15.1288C72.435 15.6606 72.2684 16.4217 72.2684 17.4132V22.8073H69.3755V16.4629C69.3755 15.7875 69.2329 15.2651 68.9518 14.8922C68.6687 14.5188 68.2587 14.3329 67.7209 14.3329C67.1019 14.3329 66.6256 14.5991 66.2952 15.1288C65.9649 15.6606 65.7989 16.4217 65.7989 17.4132V22.8073H62.9058V12.3088H65.6335V13.5066H65.675C66.0607 13.0104 66.4874 12.6452 66.9553 12.412C67.4254 12.1767 67.9699 12.0588 68.5898 12.0588C69.3202 12.0588 69.9503 12.2106 70.4811 12.5152C71.0108 12.8178 71.4221 13.2654 71.7113 13.8581C72.1244 13.2654 72.5921 12.8178 73.1162 12.5152C73.6402 12.2106 74.2876 12.0588 75.0603 12.0588C76.2035 12.0588 77.1016 12.4258 77.7573 13.1559Z" fill="white"/>
<path d="M89.2401 19.9363V17.9929V16.1305C89.2401 14.7545 88.8605 13.7169 88.1029 13.0217C87.3454 12.3257 86.2219 11.9778 84.7342 11.9778C83.2997 11.9778 82.1974 12.3152 81.426 12.9907C80.6547 13.6648 80.2406 14.5333 80.1856 15.5944H82.9975C83.0246 15.0993 83.1867 14.7087 83.4825 14.4262C83.7798 14.1452 84.1967 14.0032 84.7342 14.0032C85.2716 14.0032 85.6908 14.1543 85.9943 14.4586C86.2973 14.7608 86.4497 15.2285 86.4497 15.8621V16.2354C85.5812 16.2911 84.7053 16.3869 83.8234 16.5249C82.3636 16.7602 81.3193 17.1519 80.6921 17.7034C80.0666 18.2542 79.7524 18.9769 79.7524 19.8729C79.7524 20.7984 80.075 21.5571 80.7231 22.1579C81.3715 22.7573 82.2393 23.0574 83.3282 23.0574C84.6532 23.0574 85.6922 22.627 86.4497 21.7684V22.8073H89.2402C89.2402 22.8073 89.2401 21.1204 89.2401 19.9363ZM86.3254 19.5939C86.243 19.8898 86.0827 20.1553 85.8499 20.3899C85.6559 20.5829 85.4122 20.7322 85.1149 20.8358C84.8187 20.9386 84.5127 20.9914 84.1967 20.9914C83.7002 20.9914 83.317 20.8682 83.0486 20.628C82.7795 20.3878 82.6468 20.0659 82.6468 19.6665C82.6468 19.2516 82.776 18.936 83.0391 18.7156C83.2997 18.4965 83.734 18.3303 84.3411 18.2204C84.9194 18.1239 85.6224 18.0478 86.4497 17.9929V18.3845C86.4497 18.8959 86.4075 19.2981 86.3254 19.5939Z" fill="white"/>
<path d="M15.7534 0C7.46915 0 0.753418 6.71573 0.753418 15C0.753418 23.2843 7.46915 30 15.7534 30C24.0377 30 30.7534 23.2843 30.7534 15C30.7534 6.71573 24.0377 0 15.7534 0ZM15.2488 26.6319C14.9352 27.3427 13.9716 28.0068 12.1076 27.7042C8.11593 27.055 5.94789 24.7998 4.68785 23.1445C2.96581 20.8823 2.02496 18.0219 2.02496 14.9704C2.02496 13.589 2.2303 12.2551 2.60698 10.9941C3.02905 16.7104 9.91245 20.7888 11.8172 21.8645C12.6189 22.3174 13.3111 22.7084 13.9521 23.2279C15.2848 24.3106 15.6721 25.6668 15.2488 26.6319ZM19.6896 8.13552C18.888 7.68258 18.1957 7.2916 17.5548 6.77207C16.2221 5.68937 15.8347 4.3332 16.258 3.36805C16.5716 2.6573 17.5353 1.99317 19.3992 2.29585C23.3909 2.94504 25.559 5.2002 26.819 6.85549C28.541 9.11771 29.4819 11.9781 29.4819 15.0296C29.4819 16.411 29.2765 17.7449 28.8999 19.0059C28.4778 13.2896 21.5944 9.21115 19.6896 8.13552Z" fill="white"/>
<path d="M97.1619 18.0012L95.3112 22.7841H93.8555L99.7197 7.97766H101.571L107.414 22.7841H105.958L104.108 18.0012H97.1619ZM103.026 15.2145L100.656 9.07979H100.614L100.364 9.72448C99.6434 11.6241 98.9363 13.454 98.2432 15.2145L97.6401 16.7534H103.609L103.026 15.2145Z" fill="white"/>
<path d="M116.158 13.031C116.941 13.752 117.382 14.6946 117.479 15.8592H116.127C116.058 15.0414 115.753 14.3724 115.212 13.8523C114.671 13.3325 113.999 13.0726 113.195 13.0726C112.141 13.0726 111.313 13.4677 110.71 14.258C110.107 15.0482 109.805 16.1295 109.805 17.502C109.805 18.8884 110.107 19.9734 110.71 20.7566C111.313 21.5399 112.141 21.9315 113.195 21.9315C113.985 21.9315 114.654 21.6506 115.202 21.0892C115.749 20.5277 116.058 19.8382 116.127 19.0201H117.479C117.409 19.7826 117.191 20.4689 116.824 21.0788C116.456 21.6891 115.961 22.1707 115.337 22.524C114.713 22.8776 113.999 23.0544 113.195 23.0544C111.711 23.0544 110.544 22.5588 109.691 21.5676C108.838 20.5765 108.412 19.2212 108.412 17.502C108.412 15.7831 108.838 14.4278 109.691 13.4365C110.544 12.4454 111.711 11.9497 113.195 11.9497C114.387 11.9497 115.375 12.3103 116.158 13.031Z" fill="white"/>
<path d="M126.556 12.9686C127.256 13.6481 127.606 14.6602 127.606 16.0047V20.1846C127.606 21.1829 127.682 22.0495 127.835 22.7841H126.629C126.532 22.313 126.483 21.779 126.483 21.1829H126.442C125.721 22.3889 124.466 22.992 122.678 22.992C121.61 22.992 120.747 22.708 120.088 22.1394C119.43 21.5711 119.101 20.8433 119.101 19.9559C119.101 19.0549 119.402 18.3477 120.005 17.8347C120.609 17.322 121.645 16.9477 123.114 16.7118C124.126 16.5455 125.207 16.4206 126.358 16.3374V15.8384C126.358 14.8957 126.116 14.1956 125.631 13.738C125.145 13.2806 124.487 13.0518 123.655 13.0518C122.795 13.0518 122.13 13.2632 121.659 13.686C121.187 14.1092 120.931 14.681 120.889 15.4017H119.537C119.607 14.3759 119.998 13.5441 120.712 12.9062C121.426 12.2686 122.407 11.9497 123.655 11.9497C124.889 11.9497 125.856 12.2895 126.556 12.9686ZM123.281 17.7931C122.241 17.9459 121.513 18.1815 121.097 18.5002C120.681 18.8193 120.473 19.2768 120.473 19.8727C120.473 20.4966 120.691 20.9925 121.128 21.3595C121.565 21.727 122.171 21.9106 122.948 21.9106C123.433 21.9106 123.887 21.8311 124.31 21.6714C124.733 21.5123 125.09 21.2799 125.381 20.9748C125.755 20.587 126.011 20.2021 126.15 19.8207C126.289 19.4396 126.358 18.9092 126.358 18.2299V17.4189C125.457 17.4883 124.431 17.6132 123.281 17.7931Z" fill="white"/>
<path d="M137.621 22.7841V21.1829H137.579C137.302 21.7375 136.865 22.181 136.269 22.5137C135.673 22.8465 135.001 23.0128 134.252 23.0128C133.351 23.0128 132.564 22.7874 131.892 22.337C131.219 21.8867 130.703 21.242 130.342 20.403C129.982 19.5644 129.802 18.5905 129.802 17.4812C129.802 16.3722 129.982 15.3984 130.342 14.5595C130.703 13.7208 131.219 13.0762 131.892 12.6255C132.564 12.1751 133.351 11.9497 134.252 11.9497C135.001 11.9497 135.673 12.116 136.269 12.4488C136.865 12.7815 137.302 13.2253 137.579 13.7796H137.621V7.97766H138.91V22.7841H137.621ZM132.048 14.2372C131.451 15.0414 131.153 16.1227 131.153 17.4812C131.153 18.8401 131.451 19.9215 132.048 20.7253C132.644 21.5295 133.448 21.9315 134.46 21.9315C135.444 21.9315 136.228 21.526 136.81 20.715C137.392 19.9038 137.683 18.8262 137.683 17.4812C137.683 16.1367 137.392 15.0585 136.81 14.2475C136.228 13.4365 135.444 13.031 134.46 13.031C133.448 13.031 132.644 13.4332 132.048 14.2372Z" fill="white"/>
<path d="M148.115 21.3181C148.655 20.8952 149.009 20.3373 149.175 19.644H150.506C150.325 20.6144 149.851 21.4256 149.081 22.0769C148.312 22.7288 147.296 23.0544 146.035 23.0544C144.538 23.0544 143.359 22.538 142.5 21.5052C141.64 20.4724 141.21 19.0757 141.21 17.3149C141.21 16.2752 141.401 15.3496 141.782 14.5387C142.163 13.7277 142.711 13.0935 143.425 12.6359C144.139 12.1784 144.981 11.9497 145.952 11.9497C147.13 11.9497 148.111 12.2823 148.894 12.9478C149.677 13.6133 150.187 14.5355 150.423 15.7135C150.534 16.2127 150.589 16.8921 150.589 17.7515H142.52C142.548 19.1105 142.888 20.1502 143.54 20.8709C144.191 21.5919 145.023 21.9523 146.035 21.9523C146.88 21.9523 147.574 21.741 148.115 21.3181ZM143.56 14.0291C142.936 14.681 142.596 15.568 142.541 16.691H149.341C149.272 15.5404 148.932 14.6462 148.322 14.0083C147.712 13.3709 146.922 13.0518 145.952 13.0518C144.981 13.0518 144.184 13.3778 143.56 14.0291Z" fill="white"/>
<path d="M166.57 13.0621C167.159 13.7764 167.454 14.8334 167.454 16.2335V22.784H166.165V16.3166C166.165 15.152 165.967 14.3274 165.572 13.842C165.177 13.3569 164.585 13.1141 163.794 13.1141C162.948 13.1141 162.269 13.426 161.756 14.0499C161.243 14.6738 160.987 15.4988 160.987 16.5247V22.784H159.698V15.984C159.698 15.083 159.49 14.3795 159.074 13.8731C158.658 13.3673 158.075 13.1141 157.327 13.1141C156.481 13.1141 155.801 13.44 155.289 14.0915C154.776 14.7434 154.519 15.6096 154.519 16.691V22.784H153.23V12.22H154.519V13.5925H154.561C155.323 12.5252 156.308 11.9911 157.514 11.9911C158.235 11.9911 158.873 12.1751 159.427 12.5423C159.982 12.9098 160.39 13.426 160.654 14.0915C160.987 13.4124 161.437 12.8925 162.006 12.5318C162.574 12.1716 163.24 11.9911 164.002 11.9911C165.125 11.9911 165.981 12.3484 166.57 13.0621Z" fill="white"/>
<path d="M172.778 25.4043C172.417 25.8894 172.008 26.2289 171.551 26.4232C171.093 26.6173 170.511 26.7143 169.804 26.7143C169.499 26.7143 169.242 26.6865 169.035 26.6313V25.4875C169.242 25.5426 169.492 25.5706 169.783 25.5706C170.31 25.5706 170.732 25.4978 171.052 25.3524C171.37 25.2067 171.651 24.9397 171.894 24.5517C172.136 24.1633 172.41 23.5742 172.715 22.7841L168.556 12.22H169.949L173.381 21.1413H173.422L176.853 12.22H178.247L173.88 23.2831C173.505 24.2118 173.138 24.9189 172.778 25.4043Z" fill="white"/>
</svg>
