<svg width="64" height="65" viewBox="0 0 64 65" fill="none" xmlns="http://www.w3.org/2000/svg">
<rect y="0.5" width="64" height="64" rx="32" fill="#F5F5F5"/>
<path fill-rule="evenodd" clip-rule="evenodd" d="M27 22.5H21C19.94 22.5 18.92 22.9215 18.17 23.6715C17.42 24.4215 17 25.439 17 26.5V42C17 43.061 17.42 44.0785 18.17 44.8285C18.92 45.5785 19.94 46 21 46H22V46.5C22 47.052 22.45 47.5 23 47.5C23.55 47.5 24 47.052 24 46.5V46H40V46.5C40 47.052 40.45 47.5 41 47.5C41.55 47.5 42 47.052 42 46.5V46H43C44.06 46 45.08 45.5785 45.83 44.8285C46.58 44.0785 47 43.061 47 42V26.5C47 25.439 46.58 24.4215 45.83 23.6715C45.08 22.9215 44.06 22.5 43 22.5H37V20.5C37 18.843 35.655 17.5 34 17.5H30C28.345 17.5 27 18.843 27 20.5V22.5ZM24 25.5V43C24 43.552 24.45 44 25 44C25.55 44 26 43.552 26 43V25.5C26 24.948 25.55 24.5 25 24.5C24.45 24.5 24 24.948 24 25.5ZM38 25.5V43C38 43.552 38.45 44 39 44C39.55 44 40 43.552 40 43V25.5C40 24.948 39.55 24.5 39 24.5C38.45 24.5 38 24.948 38 25.5ZM35 22.5V20.5C35 19.9475 34.555 19.5 34 19.5H30C29.445 19.5 29 19.9475 29 20.5V22.5H35Z" fill="black"/>
</svg>
