<svg width="60" height="61" viewBox="0 0 60 61" fill="none" xmlns="http://www.w3.org/2000/svg">
<rect width="60" height="60.0946" rx="30" fill="#F5F5F5"/>
<path d="M42.0332 17.8426C41.4144 17.2305 40.6769 16.7517 39.866 16.4355C39.0551 16.1193 38.1881 15.9726 37.3184 16.0042C35.6457 16.0654 34.0596 16.7636 32.885 17.9561C31.7103 19.1485 31.036 20.7449 31 22.4183C30.9766 23.837 31.4259 25.2231 32.2773 26.3582C32.3975 26.5374 35.3115 30.5902 36.2061 31.8304C36.3505 32.0261 36.5387 32.1853 36.7556 32.2954C36.9725 32.4055 37.2121 32.4633 37.4553 32.4644C37.6985 32.4654 37.9386 32.4096 38.1565 32.3014C38.3743 32.1932 38.5638 32.0356 38.71 31.8411C38.71 31.8411 42.5654 26.5731 42.6816 26.4246C43.5321 25.2929 43.9944 23.9169 44 22.5013C44.003 21.6323 43.8303 20.7717 43.4923 19.9711C43.1543 19.1705 42.658 18.4465 42.0332 17.8426ZM37.5 25.0945C37.0055 25.0945 36.5222 24.9479 36.1111 24.6732C35.7 24.3985 35.3795 24.0081 35.1903 23.5513C35.0011 23.0944 34.9516 22.5918 35.048 22.1068C35.1445 21.6219 35.3826 21.1764 35.7322 20.8268C36.0819 20.4772 36.5273 20.239 37.0123 20.1426C37.4972 20.0461 37.9999 20.0956 38.4567 20.2849C38.9135 20.4741 39.304 20.7945 39.5787 21.2056C39.8534 21.6167 40 22.1001 40 22.5945C39.9993 23.2574 39.7357 23.8929 39.267 24.3615C38.7983 24.8302 38.1628 25.0939 37.5 25.0945ZM21 41.5945C21 42.089 20.8534 42.5724 20.5787 42.9835C20.304 43.3946 19.9135 43.715 19.4567 43.9042C18.9999 44.0935 18.4972 44.143 18.0123 44.0465C17.5273 43.9501 17.0819 43.7119 16.7322 43.3623C16.3826 43.0127 16.1445 42.5672 16.048 42.0823C15.9516 41.5973 16.0011 41.0947 16.1903 40.6378C16.3795 40.181 16.7 39.7906 17.1111 39.5159C17.5222 39.2412 18.0055 39.0945 18.5 39.0945C19.1628 39.0953 19.7982 39.359 20.2669 39.8276C20.7356 40.2963 20.9992 40.9317 21 41.5945ZM32 39.0945C31.9991 39.8899 31.6828 40.6525 31.1204 41.2149C30.5579 41.7773 29.7954 42.0937 29 42.0945H22.9495C23.0484 41.4196 22.9706 40.7305 22.7236 40.0945H29C29.2652 40.0945 29.5196 39.9892 29.7071 39.8017C29.8946 39.6141 30 39.3598 30 39.0945C30 38.8293 29.8946 38.575 29.7071 38.3874C29.5196 38.1999 29.2652 38.0945 29 38.0945H25C24.2046 38.0937 23.4421 37.7773 22.8796 37.2149C22.3172 36.6525 22.0009 35.8899 22 35.0945V34.0945C22.0009 33.2992 22.3172 32.5366 22.8796 31.9742C23.4421 31.4118 24.2046 31.0954 25 31.0945H33.212C33.8504 31.9625 34.2956 32.6412 34.6708 33.0945H25C24.7349 33.0949 24.4807 33.2004 24.2933 33.3878C24.1058 33.5753 24.0003 33.8294 24 34.0945V35.0945C24.0003 35.3597 24.1058 35.6138 24.2933 35.8013C24.4807 35.9887 24.7349 36.0942 25 36.0945H29C29.7954 36.0954 30.5579 36.4118 31.1204 36.9742C31.6828 37.5366 31.9991 38.2992 32 39.0945Z" fill="black"/>
</svg>
